<svg width="121" height="26" viewBox="0 0 121 26" fill="none" xmlns="http://www.w3.org/2000/svg">
<path fill-rule="evenodd" clip-rule="evenodd" d="M12.6873 1.32305C11.6935 0.296707 10.056 0.27025 9.02964 1.26396L0.858691 9.17509C-0.167649 10.1688 -0.194105 11.8064 0.799601 12.8327C0.865553 12.9008 0.93434 12.9645 1.0056 13.0238C1.32737 13.5534 1.83936 13.9698 2.48024 14.1599L9.57007 16.2629V22.9646C9.57007 24.3453 10.6894 25.4646 12.0701 25.4646C13.4508 25.4646 14.5701 24.3453 14.5701 22.9646V17.4619C15.5038 17.2961 16.3113 16.6209 16.5994 15.6498C17.0056 14.2802 16.2247 12.8406 14.8551 12.4344L14.5701 12.3498V11.9646C14.5701 10.5839 13.4508 9.4646 12.0701 9.4646C11.0573 9.4646 10.1852 10.0668 9.79231 10.9327L7.25731 10.1807L12.6282 4.98066C13.6545 3.98696 13.681 2.34939 12.6873 1.32305Z" fill="url(#paint0_linear_2_6391)"/>
<path d="M45.1799 10.0046C45.5399 9.47122 46.0332 9.03788 46.6599 8.70455C47.2999 8.37122 48.0265 8.20455 48.8399 8.20455C49.7865 8.20455 50.6399 8.43788 51.3999 8.90455C52.1732 9.37122 52.7799 10.0379 53.2199 10.9046C53.6732 11.7579 53.8999 12.7512 53.8999 13.8846C53.8999 15.0179 53.6732 16.0246 53.2199 16.9046C52.7799 17.7712 52.1732 18.4446 51.3999 18.9246C50.6399 19.4046 49.7865 19.6446 48.8399 19.6446C48.0132 19.6446 47.2865 19.4846 46.6599 19.1646C46.0465 18.8312 45.5532 18.4046 45.1799 17.8846V19.4646H42.3799V4.66455H45.1799V10.0046ZM51.0399 13.8846C51.0399 13.2179 50.8999 12.6446 50.6199 12.1646C50.3532 11.6712 49.9932 11.2979 49.5399 11.0446C49.0999 10.7912 48.6199 10.6646 48.0999 10.6646C47.5932 10.6646 47.1132 10.7979 46.6599 11.0646C46.2199 11.3179 45.8599 11.6912 45.5799 12.1846C45.3132 12.6779 45.1799 13.2579 45.1799 13.9246C45.1799 14.5912 45.3132 15.1712 45.5799 15.6646C45.8599 16.1579 46.2199 16.5379 46.6599 16.8046C47.1132 17.0579 47.5932 17.1846 48.0999 17.1846C48.6199 17.1846 49.0999 17.0512 49.5399 16.7846C49.9932 16.5179 50.3532 16.1379 50.6199 15.6446C50.8999 15.1512 51.0399 14.5646 51.0399 13.8846Z" fill="#051441"/>
<path d="M66.2346 13.6846C66.2346 14.0846 66.2079 14.4446 66.1546 14.7646H58.0546C58.1212 15.5646 58.4012 16.1912 58.8946 16.6446C59.3879 17.0979 59.9946 17.3246 60.7146 17.3246C61.7546 17.3246 62.4946 16.8779 62.9346 15.9846H65.9546C65.6346 17.0512 65.0212 17.9312 64.1146 18.6246C63.2079 19.3046 62.0946 19.6446 60.7746 19.6446C59.7079 19.6446 58.7479 19.4112 57.8946 18.9446C57.0546 18.4646 56.3946 17.7912 55.9146 16.9246C55.4479 16.0579 55.2146 15.0579 55.2146 13.9246C55.2146 12.7779 55.4479 11.7712 55.9146 10.9046C56.3812 10.0379 57.0346 9.37122 57.8746 8.90455C58.7146 8.43788 59.6812 8.20455 60.7746 8.20455C61.8279 8.20455 62.7679 8.43122 63.5946 8.88455C64.4346 9.33788 65.0812 9.98455 65.5346 10.8246C66.0012 11.6512 66.2346 12.6046 66.2346 13.6846ZM63.3346 12.8846C63.3212 12.1646 63.0612 11.5912 62.5546 11.1646C62.0479 10.7246 61.4279 10.5046 60.6946 10.5046C60.0012 10.5046 59.4146 10.7179 58.9346 11.1446C58.4679 11.5579 58.1812 12.1379 58.0746 12.8846H63.3346Z" fill="#051441"/>
<path d="M78.8783 8.38455L72.0183 24.7046H69.0383L71.4383 19.1846L66.9983 8.38455H70.1383L72.9983 16.1246L75.8983 8.38455H78.8783Z" fill="#051441"/>
<path d="M85.3077 19.6446C84.241 19.6446 83.281 19.4112 82.4277 18.9446C81.5744 18.4646 80.901 17.7912 80.4077 16.9246C79.9277 16.0579 79.6877 15.0579 79.6877 13.9246C79.6877 12.7912 79.9344 11.7912 80.4277 10.9246C80.9344 10.0579 81.621 9.39122 82.4877 8.92455C83.3544 8.44455 84.321 8.20455 85.3877 8.20455C86.4544 8.20455 87.421 8.44455 88.2877 8.92455C89.1544 9.39122 89.8344 10.0579 90.3277 10.9246C90.8344 11.7912 91.0877 12.7912 91.0877 13.9246C91.0877 15.0579 90.8277 16.0579 90.3077 16.9246C89.801 17.7912 89.1077 18.4646 88.2277 18.9446C87.361 19.4112 86.3877 19.6446 85.3077 19.6446ZM85.3077 17.2046C85.8144 17.2046 86.2877 17.0846 86.7277 16.8446C87.181 16.5912 87.541 16.2179 87.8077 15.7246C88.0744 15.2312 88.2077 14.6312 88.2077 13.9246C88.2077 12.8712 87.9277 12.0646 87.3677 11.5046C86.821 10.9312 86.1477 10.6446 85.3477 10.6446C84.5477 10.6446 83.8744 10.9312 83.3277 11.5046C82.7944 12.0646 82.5277 12.8712 82.5277 13.9246C82.5277 14.9779 82.7877 15.7912 83.3077 16.3646C83.841 16.9246 84.5077 17.2046 85.3077 17.2046Z" fill="#051441"/>
<path d="M99.2816 8.22455C100.602 8.22455 101.668 8.64455 102.482 9.48455C103.295 10.3112 103.702 11.4712 103.702 12.9646V19.4646H100.902V13.3446C100.902 12.4646 100.682 11.7912 100.242 11.3246C99.8016 10.8446 99.2016 10.6046 98.4416 10.6046C97.6683 10.6046 97.0549 10.8446 96.6016 11.3246C96.1616 11.7912 95.9416 12.4646 95.9416 13.3446V19.4646H93.1416V8.38455H95.9416V9.76455C96.3149 9.28455 96.7883 8.91122 97.3616 8.64455C97.9483 8.36455 98.5883 8.22455 99.2816 8.22455Z" fill="#051441"/>
<path d="M105.644 13.8846C105.644 12.7646 105.864 11.7712 106.304 10.9046C106.758 10.0379 107.371 9.37122 108.144 8.90455C108.918 8.43788 109.778 8.20455 110.724 8.20455C111.444 8.20455 112.131 8.36455 112.784 8.68455C113.438 8.99122 113.958 9.40455 114.344 9.92455V4.66455H117.184V19.4646H114.344V17.8246C113.998 18.3712 113.511 18.8112 112.884 19.1446C112.258 19.4779 111.531 19.6446 110.704 19.6446C109.771 19.6446 108.918 19.4046 108.144 18.9246C107.371 18.4446 106.758 17.7712 106.304 16.9046C105.864 16.0246 105.644 15.0179 105.644 13.8846ZM114.364 13.9246C114.364 13.2446 114.231 12.6646 113.964 12.1846C113.698 11.6912 113.338 11.3179 112.884 11.0646C112.431 10.7979 111.944 10.6646 111.424 10.6646C110.904 10.6646 110.424 10.7912 109.984 11.0446C109.544 11.2979 109.184 11.6712 108.904 12.1646C108.638 12.6446 108.504 13.2179 108.504 13.8846C108.504 14.5512 108.638 15.1379 108.904 15.6446C109.184 16.1379 109.544 16.5179 109.984 16.7846C110.438 17.0512 110.918 17.1846 111.424 17.1846C111.944 17.1846 112.431 17.0579 112.884 16.8046C113.338 16.5379 113.698 16.1646 113.964 15.6846C114.231 15.1912 114.364 14.6046 114.364 13.9246Z" fill="#051441"/>
<circle cx="120" cy="18.4644" r="1" fill="#FF7D00"/>
<defs>
<linearGradient id="paint0_linear_2_6391" x1="-0.892271" y1="3.32277" x2="12.1146" y2="27.2766" gradientUnits="userSpaceOnUse">
<stop stop-color="#F6600B"/>
<stop offset="1" stop-color="#F6D00B" stop-opacity="0"/>
</linearGradient>
</defs>
</svg>
